<svg id="Layer_1" data-name="Layer 1" xmlns="http://www.w3.org/2000/svg" xmlns:xlink="http://www.w3.org/1999/xlink" viewBox="0 0 80 80"><defs><style>.cls-1{fill:none;}.cls-2{clip-path:url(#clip-path);}.cls-3{fill:#ef3934;}.cls-4{fill:#b72c28;fill-rule:evenodd;}.cls-5{fill:#fff;}.cls-6{fill:#bec0c3;}.cls-7{fill:#e5e6e7;}.cls-8{fill:#2f86eb;}.cls-9{fill:#282c36;}</style><clipPath id="clip-path"><path class="cls-1" d="M54.012,0h.79042c3.69341.00958,4.50778.01916,5.31737.04311A34.98218,34.98218,0,0,1,65.40838.503a17.89492,17.89492,0,0,1,5.02994,1.63832,16.91914,16.91914,0,0,1,4.28743,3.07545,16.65741,16.65741,0,0,1,3.109,4.23473A17.42036,17.42036,0,0,1,79.49222,14.424a34.23911,34.23911,0,0,1,.46467,5.23114c.024.8.03353,1.6.03832,2.40479C80,23.00838,80,23.96168,80,24.91018V55.08982c0,.9485,0,1.9018-.00479,2.85509-.00479.8-.01437,1.6-.03832,2.4a34.23911,34.23911,0,0,1-.46467,5.23114,17.46983,17.46983,0,0,1-1.65749,4.97246,16.74174,16.74174,0,0,1-3.109,4.23473,16.91914,16.91914,0,0,1-4.28743,3.07545A17.89492,17.89492,0,0,1,65.40838,79.497a34.98218,34.98218,0,0,1-5.28862.45988C56.72335,80,55.76527,80,54.8024,80H25.1976c-3.69341-.00958-4.503-.01916-5.31737-.04311a34.98218,34.98218,0,0,1-5.28862-.45988,17.89492,17.89492,0,0,1-5.02994-1.63832A16.83524,16.83524,0,0,1,2.16527,70.5485,17.62,17.62,0,0,1,.50778,65.576a34.23911,34.23911,0,0,1-.46467-5.23114c-.024-.8-.03353-1.6-.03832-2.4C0,56.99162,0,56.03832,0,55.08982V24.91018c0-.9485,0-1.9018.00479-2.8503.00479-.80479.01437-1.60479.03832-2.40479A34.23911,34.23911,0,0,1,.50778,14.424,17.5697,17.5697,0,0,1,2.16527,9.4515,16.67538,16.67538,0,0,1,5.279,5.21677,16.89426,16.89426,0,0,1,9.56168,2.14132,17.89492,17.89492,0,0,1,14.59162.503,34.98218,34.98218,0,0,1,19.88024.04311C23.27665,0,24.23952,0,25.1976,0Z"/></clipPath></defs><title>darwin-icon-03</title><g class="cls-2"><rect id="SVGID" class="cls-3" x="-1.65858" y="-1.31148" width="83.04539" height="82.62295"/><path class="cls-4" d="M71.13136,28.53414-1.65183,28.5229l.01249,23.07081H71.13237a.50562.50562,0,0,0,.46022-.715l-1.90935-4.1963a2.0611,2.0611,0,0,1,0-1.70719l1.94771-4.28077a1.52242,1.52242,0,0,0,0-1.261l-1.94773-4.2808a2.061,2.061,0,0,1,0-1.70713l1.909-4.19529A.50637.50637,0,0,0,71.13136,28.53414Z"/><rect class="cls-5" x="14.42623" y="9.5082" width="49.5082" height="60.98361" rx="1.31148" ry="1.31148"/><rect class="cls-6" x="20.65759" y="41.63934" width="33.76863" height="2.01048" rx="0.24461" ry="0.24461"/><rect class="cls-6" x="20.65759" y="47.54098" width="28.19486" height="2.05705" rx="0.24461" ry="0.24461"/><rect class="cls-7" x="20.65574" y="16.05001" width="36.74406" height="18.39897" rx="0.35062" ry="0.35062"/><path class="cls-8" d="M21.00636,16.05h18.01a0,0,0,0,1,0,0V34.449a0,0,0,0,1,0,0h-18.01a.35062.35062,0,0,1-.35062-.35062V16.40063A.35062.35062,0,0,1,21.00636,16.05Z"/><path class="cls-5" d="M35.082,25.2195c0,3.55312-2.76415,5.928-6.37925,5.928H24.62718V19.36229h4.07554C32.31782,19.36229,35.082,21.59436,35.082,25.2195ZM27.67485,22.148v6.23184h1.01029a3.04207,3.04207,0,0,0,3.27808-3.16039c0-2.08922-1.43519-3.07145-3.27808-3.07145Z"/><path class="cls-6" d="M53.44262,29.18033H51.47541V22.525l1.45524,1.819a.65561.65561,0,1,0,1.02395-.819l-2.623-3.27869c-.00544-.00672-.01265-.01121-.01825-.01777a.65742.65742,0,0,0-.07941-.07716l-.012-.00977a.6426.6426,0,0,0-.80462,0l-.012.00977a.65742.65742,0,0,0-.07941.07716c-.0056.00656-.01281.011-.01825.01777l-2.111,2.63864-2.111-2.63864c-.00544-.00672-.01265-.01121-.01825-.01777a.65742.65742,0,0,0-.07941-.07716l-.012-.00977a.6426.6426,0,0,0-.80462,0l-.012.00977a.65742.65742,0,0,0-.07941.07716c-.0056.00656-.01281.011-.01825.01777l-2.623,3.27869a.65561.65561,0,0,0,1.02395.819L44.918,22.525v6.65535H42.95082a.65574.65574,0,0,0,0,1.31148h10.4918a.65574.65574,0,1,0,0-1.31148ZM46.22951,22.525l1.45524,1.819.0032.003a.64747.64747,0,0,0,.09926.09942l.00208.00128c.01137.00913.024.01521.03586.02337a.66472.66472,0,0,0,.08389.05171c.01425.00688.0293.01137.044.01729a.64994.64994,0,0,0,.08613.0293c.01633.00416.0325.00608.049.00881a.64289.64289,0,0,0,.08565.00945c.00784.00032.01537.00256.02321.00256.0064,0,.01265-.003.01905-.0032a.65851.65851,0,0,0,.18715-.03122l.02081-.00881a.64794.64794,0,0,0,.17338-.09558l.00881-.005.00368-.00352c.01665-.01361.03106-.03026.04659-.04563a.68276.68276,0,0,0,.04883-.04995l.00336-.00336,1.45524-1.819v6.65535H46.22951Z"/><rect class="cls-9" x="20.65574" y="57.04918" width="1.63934" height="7.21311"/><rect class="cls-9" x="29.18033" y="57.04918" width="1.31148" height="7.21311"/><rect class="cls-9" x="48.53155" y="57.04918" width="1.30452" height="7.21311"/><rect class="cls-9" x="52.13115" y="57.04918" width="1.31148" height="7.21311"/><rect class="cls-9" x="24.59016" y="57.04918" width="2.62295" height="7.21311"/><rect class="cls-9" x="55.40984" y="57.04918" width="2.29508" height="7.21311"/><rect class="cls-9" x="32.45902" y="57.04918" width="2.29508" height="7.21311"/><rect class="cls-9" x="42.29508" y="57.04918" width="4.2623" height="7.21311"/><rect class="cls-9" x="37.37705" y="57.04918" width="2.62295" height="7.21311"/></g></svg>