<svg height="24" viewBox="0 0 23 24" width="23" xmlns="http://www.w3.org/2000/svg"><g fill="none" fill-rule="evenodd" stroke="#ef3934" stroke-linejoin="round" stroke-width="2" transform="translate(1 1)"><path d="m12 9c-.983-.542-2.359-1.683-3.852-3.81-1.575-2.243-1.994-4.068-2.148-5.19-.154 1.122-.621 2.947-2.195 5.19-1.493 2.127-2.822 3.268-3.805 3.81.983.542 2.312 1.708 3.805 3.834 1.574 2.243 2.041 4.043 2.195 5.166.154-1.122.574-2.923 2.148-5.166 1.493-2.126 2.869-3.292 3.852-3.834z"/><path d="m21 4c-.437-.241-1.382-.748-2.045-1.693-.7-.997-.886-1.808-.955-2.307-.068.499-.276 1.31-.976 2.307-.663.945-1.587 1.452-2.024 1.693.437.241 1.361.759 2.024 1.704.7.997.908 1.797.976 2.296.068-.499.255-1.299.955-2.296.663-.945 1.608-1.463 2.045-1.704z"/><path d="m19 17c-.492-.271-2.191-1.341-2.938-2.405-.787-1.121-.997-2.034-1.074-2.595-.077.561-.31 1.474-1.097 2.595-.747 1.063-2.399 2.134-2.891 2.405.492.271 2.145 1.373 2.891 2.436.787 1.122 1.02 2.022 1.097 2.583.077-.561.287-1.461 1.074-2.582.747-1.064 2.446-2.166 2.938-2.437z"/></g></svg>