<svg height="22" viewBox="0 0 22 22" width="22" xmlns="http://www.w3.org/2000/svg"><g fill="none" fill-rule="evenodd" transform="translate(1 1)"><path d="m8 20h12v-20h-12z" stroke="#ef3934" stroke-linejoin="round" stroke-width="2"/><path d="m0 20h8v-16h-8z" stroke="#ef3934" stroke-linejoin="round" stroke-width="2"/><g fill="#ef3934"><path d="m3 9h2v-2h-2z"/><path d="m3 13h2v-2h-2z"/><path d="m3 17h2v-2h-2z"/><path d="m11 5h2v-2h-2z"/><path d="m15 5h2v-2h-2z"/><path d="m11 9h2v-2h-2z"/><path d="m15 9h2v-2h-2z"/><path d="m11 13h2v-2h-2z"/><path d="m15 13h2v-2h-2z"/><path d="m11 17h2v-2h-2z"/><path d="m15 17h2v-2h-2z"/></g></g></svg>