<?xml version="1.0" encoding="utf-8"?>
<!-- Generator: Adobe Illustrator 23.0.1, SVG Export Plug-In . SVG Version: 6.00 Build 0)  -->
<svg version="1.1" id="Layer_1" xmlns="http://www.w3.org/2000/svg" xmlns:xlink="http://www.w3.org/1999/xlink" x="0px" y="0px"
	 viewBox="0 0 24 24" style="enable-background:new 0 0 24 24;" xml:space="preserve">
<style type="text/css">
	.st0{fill:none;stroke:#292D37;stroke-width:2;stroke-linejoin:round;stroke-miterlimit:10;}
	.st1{fill:none;stroke:#282C36;stroke-width:2;stroke-linejoin:round;stroke-miterlimit:10;}
	.st2{fill:#282C36;}
	.st3{fill:#282D37;}
	.st4{fill:none;stroke:#282C36;stroke-width:2;stroke-miterlimit:10;}
	.st5{fill:none;stroke:#282C36;stroke-width:2;stroke-linecap:square;stroke-linejoin:round;stroke-miterlimit:10;}
	.st6{fill:none;stroke:#292D37;stroke-width:2;stroke-linecap:round;stroke-linejoin:round;stroke-miterlimit:10;}
	.st7{fill-rule:evenodd;clip-rule:evenodd;fill:none;stroke:#2A2E38;stroke-width:2;stroke-linejoin:round;stroke-miterlimit:10;}
	.st8{fill:#292D37;}
	.st9{fill:#EF3B35;}
</style>
<g>
	<path class="st9" d="M23.708,9.472l-0.925-6.117c-0.161-1.071-0.989-1.902-2.062-2.066l-6.137-0.941
		c-0.771-0.121-1.56,0.141-2.113,0.692L0.598,12.904c-0.188,0.188-0.293,0.442-0.293,0.708c0,0.265,0.105,0.52,0.293,0.707
		l9.127,9.128c0.195,0.195,0.451,0.293,0.707,0.293s0.512-0.098,0.707-0.292l11.874-11.865
		C23.564,11.031,23.824,10.243,23.708,9.472z M21.6,10.167L10.433,21.325L2.72,13.612L13.884,2.456
		c0.104-0.104,0.253-0.152,0.398-0.131l6.136,0.941c0.201,0.031,0.357,0.187,0.387,0.388l0.925,6.117
		C21.752,9.916,21.703,10.064,21.6,10.167z"/>
	<path class="st9" d="M14.707,4.715c-1.271,1.273-1.271,3.343,0,4.617c0.637,0.636,1.472,0.954,2.308,0.954s1.671-0.318,2.308-0.954
		c1.273-1.272,1.273-3.344,0-4.616C18.05,3.443,15.98,3.443,14.707,4.715z M17.909,7.917c-0.494,0.493-1.295,0.492-1.787,0
		c-0.493-0.493-0.493-1.295,0-1.788c0.247-0.247,0.57-0.37,0.894-0.37s0.647,0.123,0.894,0.369
		C18.401,6.623,18.401,7.424,17.909,7.917z"/>
	
		<rect x="3.947" y="10.314" transform="matrix(0.7169 -0.6972 0.6972 0.7169 -5.5423 8.9795)" class="st9" width="8.676" height="2"/>
	
		<rect x="6.745" y="13.908" transform="matrix(0.7071 -0.7071 0.7071 0.7071 -7.8583 10.8448)" class="st9" width="4.832" height="2"/>
	
		<rect x="8.787" y="15.617" transform="matrix(0.7071 -0.7071 0.7071 0.7071 -8.2322 13.3585)" class="st9" width="6.443" height="2"/>
</g>
</svg>
