<?xml version="1.0" encoding="utf-8"?>
<!-- Generator: Adobe Illustrator 23.0.1, SVG Export Plug-In . SVG Version: 6.00 Build 0)  -->
<svg version="1.1" id="Layer_1" xmlns="http://www.w3.org/2000/svg" xmlns:xlink="http://www.w3.org/1999/xlink" x="0px" y="0px"
	 viewBox="0 0 24 24" style="enable-background:new 0 0 24 24;" xml:space="preserve">
<style type="text/css">
	.st0{fill:none;stroke:#292D37;stroke-width:2;stroke-linejoin:round;stroke-miterlimit:10;}
	.st1{fill:none;stroke:#282C36;stroke-width:2;stroke-linejoin:round;stroke-miterlimit:10;}
	.st2{fill:#282C36;}
	.st3{fill:#282D37;}
	.st4{fill:none;stroke:#282C36;stroke-width:2;stroke-miterlimit:10;}
	.st5{fill:none;stroke:#282C36;stroke-width:2;stroke-linecap:square;stroke-linejoin:round;stroke-miterlimit:10;}
	.st6{fill:none;stroke:#292D37;stroke-width:2;stroke-linecap:round;stroke-linejoin:round;stroke-miterlimit:10;}
	.st7{fill-rule:evenodd;clip-rule:evenodd;fill:none;stroke:#2A2E38;stroke-width:2;stroke-linejoin:round;stroke-miterlimit:10;}
	.st8{fill:#292D37;}
	.st9{fill:#EF3B35;}
</style>
<g>
	<rect x="5.008" y="5" class="st9" width="5.048" height="2"/>
	<rect x="5" y="10" class="st9" width="7" height="2"/>
	<rect x="5" y="15" class="st9" width="5" height="2"/>
	<path class="st9" d="M23.918,16c0-2.951-2.127-5.404-4.918-5.902V6c0-0.125-0.028-0.246-0.073-0.361
		c-0.016-0.041-0.041-0.074-0.062-0.112c-0.028-0.051-0.047-0.106-0.084-0.152l-4-5c-0.013-0.017-0.035-0.023-0.049-0.039
		c-0.048-0.053-0.107-0.09-0.165-0.131c-0.057-0.04-0.106-0.087-0.17-0.115c-0.042-0.018-0.091-0.019-0.136-0.031
		C14.175,0.036,14.092,0,14,0H2C1.447,0,1,0.448,1,1v22c0,0.552,0.447,1,1,1h16c0.553,0,1-0.448,1-1v-1.098
		C21.791,21.404,23.918,18.951,23.918,16z M15,3.851L15.92,5H15V3.851z M3,22V2h10v4c0,0.552,0.447,1,1,1h3v3.085
		c-2.831,0.464-5,2.936-5,5.915s2.169,5.451,5,5.915V22H3z M17.959,20C15.776,20,14,18.206,14,16s1.776-4,3.959-4
		s3.959,1.794,3.959,4S20.142,20,17.959,20z"/>
	<path class="st9" d="M19.331,15.756c-0.094-0.094-0.213-0.173-0.357-0.235s-0.317-0.108-0.52-0.137l-0.539-0.076
		c-0.079-0.01-0.143-0.028-0.191-0.052c-0.048-0.024-0.087-0.051-0.116-0.081c-0.036-0.035-0.059-0.073-0.07-0.113
		c-0.012-0.04-0.017-0.082-0.017-0.127c0-0.04,0.01-0.082,0.03-0.128c0.02-0.045,0.052-0.086,0.095-0.123
		c0.044-0.037,0.099-0.067,0.167-0.092c0.068-0.024,0.15-0.036,0.246-0.036c0.1,0,0.203,0.01,0.307,0.031
		c0.104,0.021,0.204,0.052,0.301,0.095c0.06,0.025,0.125,0.049,0.192,0.073c0.068,0.023,0.133,0.034,0.196,0.034
		c0.069,0,0.131-0.014,0.185-0.043c0.054-0.028,0.099-0.064,0.135-0.109c0.042-0.051,0.074-0.106,0.097-0.168
		c0.023-0.061,0.035-0.119,0.035-0.174c0-0.12-0.042-0.227-0.125-0.321c-0.084-0.094-0.194-0.168-0.332-0.223
		c-0.094-0.036-0.191-0.067-0.293-0.094c-0.101-0.026-0.211-0.046-0.33-0.058v-0.019c0-0.05,0-0.094-0.002-0.13
		c-0.001-0.036-0.004-0.068-0.008-0.097c-0.004-0.029-0.01-0.054-0.017-0.077c-0.007-0.023-0.017-0.047-0.03-0.073
		c-0.031-0.061-0.079-0.11-0.142-0.148C18.163,13.019,18.088,13,18,13s-0.163,0.019-0.227,0.057
		c-0.064,0.038-0.111,0.088-0.143,0.148c-0.013,0.025-0.023,0.049-0.03,0.073c-0.007,0.023-0.013,0.049-0.017,0.077
		c-0.004,0.028-0.007,0.061-0.008,0.097c-0.001,0.036-0.002,0.079-0.002,0.13v0.06c-0.175,0.042-0.332,0.106-0.469,0.19
		c-0.138,0.085-0.254,0.186-0.349,0.304s-0.167,0.251-0.217,0.398c-0.05,0.148-0.075,0.305-0.075,0.471
		c0,0.39,0.102,0.691,0.307,0.904c0.2,0.208,0.499,0.341,0.896,0.398l0.538,0.076c0.073,0.011,0.133,0.026,0.18,0.047
		c0.047,0.019,0.085,0.044,0.114,0.074c0.031,0.036,0.054,0.075,0.067,0.118c0.014,0.043,0.02,0.092,0.02,0.147
		c0,0.13-0.052,0.232-0.156,0.304c-0.105,0.071-0.265,0.107-0.482,0.107c-0.138,0-0.267-0.015-0.387-0.046
		c-0.12-0.031-0.235-0.07-0.346-0.118c-0.054-0.023-0.101-0.043-0.141-0.06c-0.039-0.017-0.076-0.031-0.109-0.041
		c-0.033-0.01-0.063-0.019-0.091-0.024c-0.027-0.005-0.055-0.008-0.085-0.008c-0.056,0-0.109,0.009-0.16,0.027
		c-0.05,0.018-0.097,0.049-0.141,0.093c-0.048,0.049-0.085,0.106-0.111,0.171c-0.026,0.065-0.039,0.128-0.039,0.19
		c0,0.082,0.013,0.155,0.039,0.22c0.026,0.065,0.064,0.121,0.114,0.172c0.05,0.05,0.111,0.096,0.183,0.137
		c0.072,0.041,0.154,0.079,0.246,0.115c0.1,0.042,0.204,0.073,0.313,0.094c0.108,0.019,0.222,0.035,0.341,0.046v0.139
		c0,0.051,0,0.094,0.002,0.13c0.001,0.036,0.004,0.068,0.008,0.097c0.004,0.029,0.01,0.054,0.017,0.077
		c0.007,0.023,0.017,0.047,0.03,0.073c0.031,0.061,0.079,0.111,0.143,0.148c0.063,0.038,0.139,0.057,0.227,0.057
		s0.163-0.019,0.227-0.057c0.063-0.037,0.111-0.087,0.142-0.148c0.013-0.025,0.023-0.049,0.03-0.073
		c0.007-0.023,0.013-0.049,0.017-0.077c0.004-0.028,0.007-0.061,0.008-0.097c0.001-0.036,0.002-0.079,0.002-0.13v-0.174
		c0.177-0.035,0.341-0.091,0.491-0.167c0.15-0.076,0.281-0.172,0.392-0.288c0.111-0.116,0.197-0.25,0.26-0.403
		c0.062-0.152,0.094-0.322,0.094-0.51c0-0.211-0.026-0.398-0.077-0.562C19.534,16.015,19.449,15.874,19.331,15.756z"/>
</g>
</svg>
