<?xml version="1.0" encoding="utf-8"?>
<!-- Generator: Adobe Illustrator 23.1.1, SVG Export Plug-In . SVG Version: 6.00 Build 0)  -->
<svg version="1.1" id="Layer_1" xmlns="http://www.w3.org/2000/svg" xmlns:xlink="http://www.w3.org/1999/xlink" x="0px" y="0px"
	 viewBox="0 0 24 24" style="enable-background:new 0 0 24 24;" xml:space="preserve">
<style type="text/css">
	.st0{fill:none;stroke:#292D37;stroke-width:2;stroke-linejoin:round;stroke-miterlimit:10;}
	.st1{fill:none;stroke:#282C36;stroke-width:2;stroke-linejoin:round;stroke-miterlimit:10;}
	.st2{fill:#282C36;}
	.st3{fill:#282D37;}
	.st4{fill:none;stroke:#282C36;stroke-width:2;stroke-miterlimit:10;}
	.st5{fill:none;stroke:#282C36;stroke-width:2;stroke-linecap:square;stroke-linejoin:round;stroke-miterlimit:10;}
	.st6{fill:none;stroke:#292D37;stroke-width:2;stroke-linecap:round;stroke-linejoin:round;stroke-miterlimit:10;}
	.st7{fill-rule:evenodd;clip-rule:evenodd;fill:none;stroke:#2A2E38;stroke-width:2;stroke-linejoin:round;stroke-miterlimit:10;}
	.st8{fill:#292D37;}
	.st9{fill:none;stroke:#282C36;stroke-width:2;stroke-linecap:round;stroke-linejoin:round;stroke-miterlimit:10;}
	.st10{fill:#EF3B35;}
</style>
<g>
	<path class="st10" d="M16.415,24c-0.413,0-0.799-0.029-1.137-0.063c-4.395-0.446-8.487-3.416-10.681-7.752
		C2.4,11.841,2.489,6.876,4.834,2.904c0.839-1.42,2.017-2.386,3.406-2.793c0.807-0.215,2.371-0.233,3.271,1.005
		c1.169,1.61,1.558,3.033,1.154,4.23c-0.233,0.692-0.847,1.617-2.441,2.097L9.578,7.626c-0.523,0.103-0.56,0.637-0.562,0.743
		c-0.064,2.296,1.762,7.052,4.416,8.917c0.283,0.2,0.71,0.356,0.981,0.144l0.62-0.407c1.112-0.697,2.222-0.862,3.211-0.487
		c1.198,0.453,2.09,1.632,2.649,3.505c0.446,1.494-0.588,2.669-1.269,3.128C18.58,23.831,17.417,24,16.415,24z M9.151,2
		C8.939,2,8.771,2.039,8.768,2.04C7.673,2.361,6.958,3.241,6.557,3.92c-2.026,3.433-2.09,7.574-0.174,11.362
		c1.888,3.733,5.374,6.287,9.097,6.665c1.39,0.141,2.334,0.002,3.05-0.453l0,0c-0.002,0,0.583-0.429,0.448-0.882
		c-0.361-1.208-0.872-1.992-1.439-2.206c-0.488-0.184-1.048,0.062-1.431,0.303l-0.531,0.344c-0.858,0.682-2.182,0.651-3.295-0.131
		C9.21,16.764,6.929,11.447,7.016,8.313l0,0c0.038-1.345,0.884-2.402,2.105-2.632l0.543-0.158c0.414-0.125,0.957-0.372,1.106-0.817
		c0.177-0.524-0.143-1.405-0.877-2.416C9.722,2.055,9.405,2,9.151,2z"/>
</g>
</svg>
