<svg height="40" viewBox="0 0 40 40" width="40" xmlns="http://www.w3.org/2000/svg"><g fill="none" fill-rule="evenodd"><rect fill="#0061d4" height="40" rx="4.444444" width="40"/><g fill="#fff" fill-rule="nonzero" transform="translate(6.666667 12.222222)"><path d="m14.6905037 4.26633139c-2.0330515 0-3.7983972 1.09559248-4.6905037 2.7038751-.89210648-1.60834153-2.65739079-2.70375731-4.69038078-2.70375731-1.19490401 0-2.2975614.37839174-3.18475135 1.01701613v-4.28653505h-.00049166c-.01241426-.55239067-.48268148-.99693026-1.06203446-.99693026-.57941444 0-1.04955874.44453959-1.0618501.99693026h-.00049165v8.44271815h.00221244c.0471988 2.77143669 2.40449618 5.00479599 5.30734532 5.00479599 2.03298999 0 3.79833576-1.0957691 4.69038078-2.7041107.89216796 1.6084594 2.65745226 2.703993 4.69044226 2.703993 2.9324099 0 5.3096192-2.2785968 5.3096192-5.08896822.0000615-2.81072485-2.3772708-5.08902709-5.3094963-5.08902709zm-9.38094594 8.14143021c-1.75895425 0-3.18475135-1.3666044-3.18475135-3.05234424 0-1.68597547 1.42585855-3.05252091 3.18475135-3.05252091 1.75895426 0 3.1848128 1.36654544 3.1848128 3.05252091 0 1.68573984-1.42585854 3.05234424-3.1848128 3.05234424zm9.38094594 0c-1.7590157 0-3.1847513-1.3666044-3.1847513-3.05246204 0-1.68597546 1.425797-3.05240311 3.1847513-3.05240311 1.7588313 0 3.1848128 1.36642765 3.1848128 3.05240311-.0000615 1.68585764-1.4259815 3.05246204-3.1848128 3.05246204z"/><path d="m26.4841412 12.8621922-2.4910118-3.41770917 2.4910118-3.41776702-.0004504-.00040448c.3081252-.44033858.2188348-1.05455887-.2056045-1.38186565-.4243266-.32696006-1.0239124-.24391983-1.3500534.18243421l-.0002251-.00011557-2.1499516 2.94986391-2.1499516-2.94986391-.0003378.00052009c-.3261409-.42675856-.9256142-.50979879-1.3501097-.18260761-.4244392.32730678-.5137297.94152708-.2054356 1.38175009l-.0004504.00028892 2.4909555 3.41776702-2.4909555 3.41770917.0004504.000289c-.3083504.4403385-.2190036 1.0544432.2054356 1.3816345.4244955.3273067 1.0239688.2441509 1.3501097-.1823187l.0003378.0004045 2.1499516-2.9499795 2.1499516 2.9499795.0002251-.0001156c.3261973.4262963.9257268.5093365 1.3500534.1822609.4244393-.3271912.5137297-.9414115.2056045-1.3816923z"/></g></g></svg>
