<svg enable-background="new 0 0 40 40" height="40px" viewBox="0 0 40 40" width="40px" xmlns="http://www.w3.org/2000/svg"><path d="m8.6 25.2c0 2.3-1.9 4.1-4.1 4.1s-4.1-1.9-4.1-4.1c0-2.3 1.9-4.1 4.1-4.1h4.1z" fill="#e01e5a"/><path d="m10.7 25.2c0-2.3 1.9-4.1 4.1-4.1s4.1 1.9 4.1 4.1v10.4c0 2.3-1.9 4.1-4.1 4.1s-4.1-1.9-4.1-4.1z" fill="#e01e5a"/><path d="m14.8 8.6c-2.3 0-4.1-1.9-4.1-4.1s1.9-4.1 4.1-4.1 4.1 1.9 4.1 4.1v4.1z" fill="#36c5f0"/><path d="m14.8 10.7c2.3 0 4.1 1.9 4.1 4.1s-1.9 4.1-4.1 4.1h-10.4c-2.3 0-4.1-1.9-4.1-4.1s1.9-4.1 4.1-4.1z" fill="#36c5f0"/><path d="m31.4 14.8c0-2.3 1.9-4.1 4.1-4.1 2.3 0 4.1 1.9 4.1 4.1s-1.9 4.1-4.1 4.1h-4.1z" fill="#2eb67d"/><path d="m29.3 14.8c0 2.3-1.9 4.1-4.1 4.1-2.3 0-4.1-1.9-4.1-4.1v-10.4c0-2.3 1.9-4.1 4.1-4.1 2.3 0 4.1 1.9 4.1 4.1z" fill="#2eb67d"/><g fill="#ecb22e"><path d="m25.2 31.4c2.3 0 4.1 1.9 4.1 4.1 0 2.3-1.9 4.1-4.1 4.1-2.3 0-4.1-1.9-4.1-4.1v-4.1z"/><path d="m25.2 29.3c-2.3 0-4.1-1.9-4.1-4.1 0-2.3 1.9-4.1 4.1-4.1h10.4c2.3 0 4.1 1.9 4.1 4.1 0 2.3-1.9 4.1-4.1 4.1z"/></g></svg>