<svg enable-background="new 0 0 1028 36" viewBox="0 0 1028 36" xmlns="http://www.w3.org/2000/svg"><g fill="#282c36"><path clip-rule="evenodd" d="m341.9 2.1c-8.9 0-16.1 7.1-16.1 15.9 0 6.5 4 12.2 9.6 14.6 0-1.1 0-2.5.3-3.7.3-1.3 2.1-8.7 2.1-8.7s-.5-1-.5-2.5c0-2.4 1.4-4.1 3.1-4.1 1.5 0 2.2 1.1 2.2 2.4 0 1.5-.9 3.6-1.4 5.7-.4 1.7.9 3.1 2.5 3.1 3 0 5.1-3.9 5.1-8.5 0-3.5-2.4-6.1-6.7-6.1-4.9 0-7.9 3.6-7.9 7.6 0 1.4.4 2.4 1.1 3.1.3.3.3.5.2.9-.1.3-.3 1-.3 1.3-.1.4-.4.5-.8.4-2.2-.9-3.3-3.4-3.3-6.1 0-4.5 3.8-10 11.5-10 6.1 0 10.2 4.4 10.2 9.1 0 6.3-3.5 10.9-8.7 10.9-1.7 0-3.4-.9-3.9-2 0 0-.9 3.7-1.1 4.4-.3 1.2-1 2.5-1.6 3.4 1.4.4 3 .7 4.6.7 8.9 0 16.1-7.1 16.1-16-.3-8.7-7.5-15.8-16.3-15.8" fill-rule="evenodd" opacity=".3"/><g opacity=".3" transform="matrix(1 0 0 -1 312.376528 30.909122)"><path d="m192.2 15.8-1.5-6-1.8 6h-3.1l-1.8-5.9-1.5 5.9h-3.9l3.4-10.8h3.6l1.7 6.1 1.7-6.1h3.6l3.4 10.8z"/><path d="m200.1 16.1c-2.8 0-4.8-1.9-4.8-5.9 0-3.7 1.8-5.6 4.6-5.6 1.5 0 2.8.7 3.5 2l.3-1.6h3.5v10.8h-3.3l-.4-1.5c-.7 1.2-1.8 1.8-3.4 1.8zm1-3.1c1.1 0 2-.8 2-2.7 0-1.8-.8-2.6-2-2.6s-1.8.9-1.8 2.6c0 2 .7 2.7 1.8 2.7z"/><path d="m214.9 10.4c0-4 2.2-5.7 5.7-5.7 2.6 0 4.2 1 5.1 2.7l-2.9 1.6c-.3-.8-1-1.2-2-1.2-1.4 0-1.9 1-1.9 2.6 0 1.9.7 2.5 2 2.5.8 0 1.4-.3 1.9-1.2l2.8 2.1c-.9 1.7-2.5 2.4-4.8 2.4-3.7-.1-5.9-1.9-5.9-5.8"/><path d="m243.7 16.1c-3.6 0-5.7-2.2-5.7-5.8 0-3.8 2.3-5.6 5.9-5.6 2.3 0 4 .8 4.9 2.4l-2.4 1.5c-.5-.8-1.1-1.1-2.2-1.1-1.3 0-2.1.6-2.3 1.9h7c.1.5.1.8.1 1.2 0 3-1.5 5.5-5.3 5.5zm-.1-2.9c1 0 1.5-.6 1.6-1.8h-3.4c.2 1.3.9 1.8 1.8 1.8z"/><path d="m257.6 12.6c0-2.1 1.6-3.2 3.6-3.7l.9-.2c.9-.2 1.3-.3 1.3-.8s-.5-.6-1.4-.6c-1.4 0-2.6.5-3.3 1.3l-1.8-1.9c.9-1.3 2.7-2 5-2 3.7 0 5.1 1.7 5.1 3.6 0 1.6-1 2.8-3.4 3.4l-1.3.3c-.9.2-1.3.5-1.3.8 0 .5.5.6 1.3.6 1.3 0 2.2-.5 2.7-1.2l1.9 2c-1 1.3-2.7 1.9-4.7 1.9-3.1 0-4.6-1.5-4.6-3.5"/><path d="m253.4 13.7-.3 2.1h-3.4v-10.8h4.2v3.9c0 2.1 1.1 3.5 3.4 3.3v4c-1.8-.1-3.2-1-3.9-2.5"/><path d="m208 18.8v-10.2c0-3.1 1.9-4 4.3-4 1.2 0 2.3.3 3.1.8l-.5 2.5c-.4-.2-.9-.3-1.3-.3-.9 0-1.4.5-1.4 1.4v3.7h2.6v3h-2.6v3z"/><path d="m225.9 20v-15h4.2v5.3c0 1.5.8 2.2 1.8 2.2s1.6-.5 1.6-2.2v-5.3h4.2v6.8c0 2.5-1.2 4.3-3.9 4.3-1.6 0-2.9-.8-3.7-2.2v6.1z"/><path d="m127.2 15.8-1.5-6-1.8 5.9h-3.1l-1.7-5.9-1.6 6h-3.9l3.4-10.8h3.6l1.7 6.1 1.7-6.1h3.6l3.4 10.8z"/><path d="m141.9 5h4.2v10.8h-4.2z"/><path d="m135.9 16.1c-3.6 0-5.7-2.2-5.7-5.8 0-3.8 2.3-5.6 5.9-5.6 2.3 0 4 .8 4.9 2.3l-2.4 1.5c-.5-.8-1.1-1.1-2.2-1.1-1.3 0-2.1.5-2.3 1.8h7c.1.5.1.8.1 1.3 0 3.1-1.5 5.6-5.3 5.6zm-.1-2.9c1 0 1.5-.7 1.6-1.8h-3.4c.2 1.2.9 1.8 1.8 1.8z"/><path d="m151.7 16.1c-2.8 0-4.8-1.8-4.8-5.5 0-3.6 1.8-5.4 4.5-5.4 1.5 0 2.5.6 3.2 1.7v-.5c0-1.6-.8-2.4-2.4-2.4-1 0-2.1.4-2.8 1.4l-2.2-2c.8-1.5 3.1-2.4 5.2-2.4 3.7 0 6.4 1.7 6.4 5.4v9.3h-3.4l-.3-1.5c-.7 1.3-1.9 1.9-3.4 1.9zm1-3.1c1.1 0 1.9-.8 1.9-2.4s-.7-2.5-1.9-2.5-1.8.8-1.8 2.5c0 1.6.6 2.4 1.8 2.4z"/><path d="m171.9 18.8v-10.2c0-3.1 1.9-4 4.3-4 1.2 0 2.3.3 3.1.8l-.5 2.5c-.4-.2-.9-.3-1.3-.3-.9 0-1.4.5-1.4 1.4v3.7h2.6v3h-2.6v3z"/><path d="m159.6 20v-15h4.2v5.3c0 1.5.8 2.2 1.8 2.2s1.6-.5 1.6-2.2v-5.3h4.2v6.8c0 2.5-1.2 4.3-3.9 4.3-1.6 0-2.9-.8-3.7-2.2v6.1z"/><path d="m141.7 18.5c0-1.4.8-2 2.3-2s2.3.6 2.3 2-.8 2-2.3 2-2.3-.6-2.3-2"/></g><g opacity=".3" transform="translate(148.166667 12)"><path d="m64.9 15.2h13.6v-1.7h-11.3v-5.2h8.5v-1.7h-8.5v-4.9h11.3v-1.6h-13.6z"/><path d="m72-2.4-1.9 2.1 5.8-2.1z"/><path d="m101.2 13.5v-13.4h-2.1v15.1h13.7v-1.7z"/><path d="m87.3.1-7.7 15.1h2.6l2-3.9h9.2l2 3.9h2.6l-7.8-15.1zm-2.2 9.3 3.6-7.2 3.7 7.2z"/><path d="m57.6 8.9c3.5-.9 3.8-3.5 3.8-4.4-.2-2.7-2-4.4-5.3-4.4h-9.6v15.1h2.2v-6.3h6.2l4.6 6.3h2.7s-3.3-4.3-4.6-6.3zm-1.8-1.8h-7.1v-5.2h7.3c1.7 0 2.6.8 3 1.8.2.7.1 1.6-.3 2.2-.6.9-1.8 1.2-2.9 1.2z"/><path d="m33.4-2.5c-6.1 0-10.3 4.3-10.3 9.6 0 5.5 4.6 9.4 10.3 9.4s10.3-3.8 10.3-9.4c0-5.3-4.2-9.6-10.3-9.6zm-.1 17.1c-4.3 0-7.8-3.4-7.8-7.5s3.3-7.7 7.9-7.7c4.5 0 7.8 3.6 7.8 7.7.1 4.1-3.6 7.5-7.9 7.5z"/><path d="m17.6 5.4h1.6l2.8-5.3h-2.3z"/><path d="m9.9 13.5v-13.4h-2.1v15.1h13.7v-1.7z"/></g><g opacity=".3"><path d="m29.9 24.9 1.2-2.7c1.3 1 2.9 1.4 4.5 1.4 1.2 0 1.9-.4 1.9-1.2 0-1.9-7.2-.4-7.3-5.3 0-2.5 2.2-4.4 5.3-4.4 1.8 0 3.7.4 5 1.5l-1.1 2.7c-1.2-.7-2.8-1.3-4.2-1.3-1 0-1.6.4-1.6 1.1 0 1.9 7.3.9 7.3 5.6 0 2.6-2.1 4.3-5.2 4.3-2.2 0-4.2-.5-5.8-1.7"/><path d="m73.7 21.3c-.5 1-1.6 1.7-2.9 1.7-1.8 0-3.3-1.5-3.3-3.3s1.5-3.3 3.3-3.3c1.3 0 2.4.6 2.9 1.7l3.1-1.7c-1.2-2.1-3.4-3.5-6-3.5-3.8 0-6.9 3.1-6.9 6.9s3.1 6.9 6.9 6.9c2.6 0 4.8-1.4 6-3.5z"/><path d="m42.7 7.1h4v19.2h-4z"/><path d="m78.4 7.1v19.2h4v-5.8l4.7 5.8h5l-6-6.8 5.6-6.4h-4.8l-4.5 5.3v-11.3z"/><path d="m58.3 21.3c-.5 1-1.7 1.6-3.1 1.6-1.8 0-3.3-1.5-3.3-3.3s1.5-3.3 3.3-3.3c1.3 0 2.5.7 3.1 1.7zm0-8.2v1.6c-.6-1.1-2.2-1.8-4-1.8-3.4 0-6.2 3.1-6.2 6.8s2.8 6.9 6.2 6.9c1.7 0 3.3-.7 4-1.8v1.5h4v-13.2z"/><path d="m5.5 21.3c0 1.4-1.1 2.5-2.5 2.5s-2.5-1.1-2.5-2.5 1.1-2.5 2.5-2.5h2.5z"/><path d="m6.8 21.3c0-1.4 1.1-2.5 2.5-2.5s2.5 1.1 2.5 2.5v6.1c0 1.4-1.1 2.5-2.5 2.5s-2.5-1.1-2.5-2.5z"/><path d="m9.1 11.6c-1.4 0-2.5-1.1-2.5-2.5s1.1-2.5 2.5-2.5 2.5 1.1 2.5 2.5v2.5z"/><path d="m9.1 12.9c1.4 0 2.5 1.1 2.5 2.5s-1.1 2.5-2.5 2.5h-6c-1.4 0-2.5-1.1-2.5-2.5s1.1-2.5 2.5-2.5z"/><path d="m18.9 15.2c0-1.4 1.1-2.5 2.5-2.5s2.5 1.1 2.5 2.5-1.1 2.5-2.5 2.5h-2.5z"/><path d="m17.7 15.2c0 1.4-1.1 2.5-2.5 2.5s-2.5-1.1-2.5-2.5v-6.1c0-1.4 1.1-2.5 2.5-2.5s2.5 1.1 2.5 2.5z"/><path d="m15.2 24.9c1.4 0 2.5 1.1 2.5 2.5s-1.1 2.5-2.5 2.5-2.5-1.1-2.5-2.5v-2.5z"/><path d="m15.2 23.8c-1.4 0-2.5-1.1-2.5-2.5s1.1-2.5 2.5-2.5h6.1c1.4 0 2.5 1.1 2.5 2.5s-1.1 2.5-2.5 2.5z"/></g><g enable-background="new" opacity=".3"><path d="m685.7 15.5c-1.5 0-2.2 1.2-2.6 1.9-.2.4-.2.8-.4.8s-.1-.3-.2-.9c-.2-.9-.9-1.8-2.4-1.8-1.6 0-2.3 1.3-2.6 2.1-.2.5-.2.6-.4.6s0-.4.1-.9c.2-.9.1-1.6.1-1.6h-2.5v9.4h3.4s0-3.9 0-4.7c0-.9.4-2.1 1-2.1.8 0 .9.6.9 1.7v5.1h3.4s0-4 0-4.7c0-.8.3-2.1 1.1-2.1s.9.8.9 1.7v5.1h3.4s0-3.7 0-5.5c-.1-2.4-1-4.1-3.2-4.1z"/><path d="m743.7 15.5c-1.5 0-2.2 1.2-2.6 1.9-.2.4-.2.8-.4.8s-.1-.4-.2-.9c-.3-.9-.9-1.8-2.4-1.8-1.6 0-2.3 1.3-2.6 2.1-.2.5-.2.6-.4.6s0-.4.1-.9c.2-.9.1-1.6.1-1.6h-2.5v9.4h3.4s0-3.9 0-4.7c0-.9.4-2.1 1-2.1.8 0 .9.6.9 1.7v5.1h3.4s0-4 0-4.7c0-.8.3-2.1 1.1-2.1s.9.8.9 1.7v5.1h3.4s0-3.7 0-5.5c-.1-2.4-.9-4.1-3.2-4.1z"/><path d="m694.6 15.5c-2.6 0-4.5 1-4.5 1v2.8s2.1-1.2 3.8-1.2c1.3 0 1.5.7 1.4 1.3 0 0-.4-.1-1.6-.1-2.8 0-4.2 1.3-4.2 3.3 0 1.9 1.6 2.7 2.9 2.7 1.9 0 2.8-1.3 3.1-1.9.2-.4.2-.7.4-.7s.1.2.1.6c0 .7 0 1.3.1 1.8h2.6v-4.6c.1-2.9-1-5-4.1-5zm-.8 7.5c-.8.2-1.2-.1-1.2-.6 0-.7.8-1 1.9-1h.9c0 .3-.7 1.4-1.6 1.6z"/><path d="m704.4 12.9h3.4v12.3h-3.4z"/><path d="m711.6 20.5c0-.8.8-1.6 2.2-1.6 1.6 0 2.8.8 3.1.9v-3.3s-1-1-3.5-1c-2.6 0-4.7 1.5-4.7 4.8s2 5.1 4.7 5.1c2.2 0 3.5-1.2 3.5-1.2v-3.1c-.4.2-1.6 1-3.1 1-1.6 0-2.2-.7-2.2-1.6z"/><path d="m723.8 15.5c-2 0-2.7 1.9-2.9 2.2s-.2.5-.4.5-.1-.4 0-.7c.2-.5.5-1.7.5-3.3 0-1.1-.1-1.4-.1-1.4h-3v12.3h3.4s0-3.9 0-4.7.3-2.1 1.2-2.1c.7 0 .9.5.9 1.6v5.2h3.4s0-2.9 0-5c.2-2.3-.2-4.6-3-4.6z"/><path d="m728.1 15.8v9.4h3.4v-9.4s-.6.3-1.7.3-1.7-.3-1.7-.3z"/><ellipse cx="729.8" cy="14.2" rx="2.1" ry="1.4"/><path d="m699.9 15.8v9.4h3.4v-9.4s-.6.3-1.7.3-1.7-.3-1.7-.3z"/><ellipse cx="701.6" cy="14.2" rx="2.1" ry="1.4"/><path d="m753.6 15.5c-1.8 0-2.6 1.3-2.9 2.1-.2.5-.2.6-.4.6s0-.4.1-.9c.2-.9.1-1.6.1-1.6h-2.5v12h3.4s0-2 0-3.8c.4.7 1.2 1.4 2.3 1.4 2.5 0 3.7-2.1 3.7-4.9 0-3.1-1.5-4.9-3.8-4.9zm-.9 7.7c-.8 0-1.4-1-1.4-2.4 0-1.3.6-2.4 1.3-2.4 1 0 1.4.9 1.4 2.4s-.4 2.4-1.3 2.4z"/><path d="m662.5 18.4h.7c.1-.3.1-.7 0-1.2-.2-.7-.4-1.2-.8-1.1s-.5.6-.3 1.4c.1.3.3.7.4.9z"/><path d="m658.8 19c.3.1.5.2.6.1 0 0 0-.1 0-.3-.2-.3-.5-.5-.8-.7-.7-.3-1.5-.2-2.1.3-.2.2-.4.4-.4.5 0 0 0 .1.1.1.2 0 .8-.3 1.5-.3.4 0 .8.1 1.1.3z"/><path d="m658.2 19.3c-.4.1-.6.2-.8.3-.1.1-.2.2-.2.3v.1h.1c.1 0 .3-.1.3-.1.6-.2.9-.2 1.3-.1h.3v-.1c-.1-.2-.5-.4-1-.4z"/><path d="m661.3 20.7c.3.1.6.1.7-.1s0-.5-.3-.6-.6-.1-.7.1c-.1.1 0 .4.3.6z"/><path d="m663.1 19.1c-.2 0-.4.2-.4.6 0 .3.2.6.4.6s.4-.2.4-.6c0-.3-.2-.6-.4-.6z"/><path d="m647.9 24.7c-.1-.1-.1 0-.2 0s-.1 0-.2 0c-.2 0-.3-.1-.4-.2-.1-.2-.1-.4 0-.7 0 0 0-.1.1-.1.2-.4.5-1.1.1-1.7-.3-.5-.7-.8-1.2-.9s-1 .1-1.3.5c-.5.5-.6 1.3-.5 1.6 0 .1.1.1.1.1.1 0 .2-.1.3-.3 0 0 0 0 0-.1s.1-.3.2-.5.3-.3.6-.4c.2-.1.5 0 .7.1.3.2.5.7.3 1.1-.1.2-.2.6-.2.9.1.7.5.9.8 1 .4 0 .6-.2.7-.3.2-.1.2-.1.1-.1z"/><path d="m668.7 23.4s-.1-.4-.2-.8-.2-.7-.2-.7c.5-.7.5-1.4.4-1.8-.1-.5-.3-.9-.7-1.3s-1.2-.8-2.3-1.1c-.1 0-.5-.2-.6-.2 0 0 0-1.4-.1-2 0-.4-.1-1.1-.3-1.7-.2-.9-.7-1.6-1.2-2.1 1.5-1.5 2.4-3.2 2.4-4.6 0-2.7-3.4-3.6-7.5-1.9l-.9.4-1.6-1.6c-4.7-4.1-19.6 12.3-14.8 16.4l1 .9c-.3.7-.4 1.5-.3 2.4.1 1.1.7 2.2 1.6 3s2 1.3 3.1 1.3c1.8 4.3 6.1 6.9 11 7 5.3.2 9.8-2.3 11.6-6.8.1-.3.6-1.7.6-3 .2-1.2-.5-1.8-1-1.8zm-21.7 3.4c-.2 0-.3 0-.5 0-1.6 0-3.3-1.5-3.5-3.2-.2-1.9.8-3.3 2.5-3.7.2 0 .5-.1.7-.1 1 .1 2.4.8 2.7 2.9.3 1.9-.1 3.8-1.9 4.1zm-1.7-8c-1.1.2-2 .8-2.6 1.6-.3-.3-1-.8-1.1-1.1-.9-1.7 1-5.1 2.3-7 3.3-4.7 8.5-8.3 10.9-7.6.4.1 1.7 1.6 1.7 1.6s-2.4 1.3-4.6 3.2c-3 2.3-5.3 5.7-6.6 9.3zm16.8 7.3c0-.1 0-.2 0-.2s-2.5.4-4.9-.5c.3-.8.9-.5 2-.5 1.9.1 3.5-.2 4.8-.5 1.1-.3 2.5-.9 3.6-1.8.4.8.5 1.7.5 1.7s.3-.1.5.1c.2.1.4.4.3 1.2-.2 1.4-.8 2.5-1.8 3.6-.6.7-1.3 1.2-2.2 1.6-.4.2-.9.4-1.4.6-3.8 1.2-7.6-.1-8.8-3-.1-.2-.2-.4-.2-.7-.5-1.9-.1-4.2 1.3-5.6.1-.1.2-.2.2-.3s-.1-.2-.1-.3c-.5-.7-2.2-1.9-1.8-4.3.2-1.7 1.7-2.9 3.1-2.8h.3c.6 0 1.1.1 1.6.1.8 0 1.6-.1 2.4-.8.3-.2.5-.5.9-.5h.4c.2 0 .4.1.6.2.7.5.8 1.6.8 2.4 0 .5.1 1.6.1 1.9 0 .7.2.9.6 1 .2.1.4.1.7.2.9.3 1.5.5 1.8.9.2.2.3.4.3.7.1.8-.6 1.8-2.5 2.7-2.1 1-4.7 1.2-6.4 1-.1 0-.6-.1-.6-.1-1.4-.2-2.2 1.6-1.4 2.9.5.8 2 1.3 3.5 1.3 3.4 0 6-1.5 7-2.7 0 0 0 0 .1-.1 0-.1 0-.1-.1-.1-.8.5-4.3 2.7-8.1 2.1 0 0-.5-.1-.9-.2-.3-.1-1-.5-1.1-1.2 2.9.9 4.9 0 4.9 0zm-10.7-13.8c1.2-1.4 2.6-2.5 3.9-3.2 0 0 .1 0 .1.1-.1.2-.3.6-.4.9 0 0 0 .1.1.1.8-.5 2.2-1.1 3.4-1.2.1 0 .1.1 0 .1-.2.1-.4.3-.5.5v.1c.9 0 2.1.3 2.9.8.1 0 0 .1 0 .1-1.2-.3-3.2-.5-5.2 0-1.9.4-3.3 1.1-4.3 1.7 0 .2-.1.1 0 0z"/></g><g opacity=".3"><path d="m943 14.2c-2.6-2.8-6.8-3.4-10.4-3.4s-8 .6-10.5 3.6c0 .1-.1.1-.1.2-1.3 1.5-2 3.6-2 6.5 0 8.8 7.2 10.3 12.6 10.3 5.5 0 12.7-1.4 12.7-10.3 0-2.9-.8-5-2-6.5-.1-.2-.2-.3-.3-.4zm-18.6 1.7c1.7-2.6 4.9-3.3 8.2-3.3s6.5.6 8.2 3.2c0 .1.1.1.1.2-2.9 1.7-6.3 1.8-8.3 6.1-2.2-4.2-5.5-4.2-8.4-5.9.1-.1.2-.2.2-.3zm8.3 13.5c-4.9 0-9.5-1.4-9.5-8.4 0-.5 0-1.1.1-1.5 0-.1 0-.2.1-.3 1.6.6 3.3 1.1 4.9 1.7 1.9.8 3.2 1.9 4.4 4.5 1.2-2.5 2.4-3.8 4.4-4.6 1.7-.6 3.3-1.2 5-1.8v.1c.1.6.1 1.3.1 1.9 0 7-4.6 8.4-9.5 8.4z"/><path d="m996.7 14.4h-10v3.9h5.2z"/><path d="m1024 14.4h-8.8v3.6h7l1.7 1.3s-4.6 0-5.6 0c-.7 0-2.9-.1-3.9 1.6 0-.2 0-.4 0-.6 0-6-4.5-5.8-4.5-5.8h-11.9l-12 9.5s0-2 0-5.8-3.9-3.7-3.9-3.7h-8.8v3.6h7c2 0 1.8 1.3 1.8 1.3s-4.7 0-5.6 0c-.7 0-2.8-.1-3.9 1.5v-1.5c0-5.3-4.7-4.9-4.7-4.9h-14.8v13.2h4.5v-9.2h3.1v9.2h4.3v-9.2h1.4c2.1 0 1.8 1.7 1.8 1.7v7.5h4.4s0-.6 0-1.8c1.1 1.8 3.2 1.8 3.2 1.8h12.2l12.1-9.7v9.7h9.5c1.8 0 3.5-.9 4.3-3.3.5 3.3 3.8 3.4 3.8 3.4h10.3s0-5.7 0-9.5c-.1-4.1-4-3.9-4-3.9zm-42 9.5h-4.7s-1 .1-1-.9c0-.8.7-.9 1-.9h4.6v1.8zm26.3-.2h-4v-5.6h4s1.9.2 1.9 2.6c.1 2.4-.8 3-1.9 3zm15.5.2h-4.7s-1 .1-1-.9c0-.8.8-.9 1.1-.9h4.6z"/><path d="m989.4 27.6h9.9v-3.9h-5.2z"/></g><path d="m857.7 7.7c1.7-.1 3.6-.6 4.3-1.3-.7 1.2-1.7 2.2-3.9 2.9-.8.3-.7.8.2.7s1.9-.6 2.3-.8c-.5.6-1 1.4-3.2 1.8-.5.2-.3.8.8.4-.3.4-.9.6-1.5.7-.7.2-.5.6.6.5-.8.5-1.6.6-2.2.6-.5.1-.1.8 1.2.5-.6.3-1 .5-2.1.6-.1 0-.2.1-.3.1-.8.1-1.9.3-2.5.9-.9 1-1.6 3.2-2.2 4.6-.5 1.3-3.1 5.6-6.2 5 .2.4.3.8.5 1.1.3 1 1.3 3.2 3.4 4.7 1.8 1.1 2.8 1.6 2.8 2.8 0 .5-.3.4-.6.4s-.6.1-.7.4c-.1.4-.3.5-.6.4-.4-.1-.7-.1-.8.3-.2.3-.3.2-.5.2-.3-.1-.5 0-.8.2-.2.2-.5.2-.9-.1-.3-.2-.6-.2-.9 0s-.6-.1-.9-.3c-.2-.2-.4-.3-.7-.2s-.5-.1-.7-.3-.3-.3-.6-.3c-.4 0-.7-.2-.9-.7-.1-.3-.3-.5-.5-.5-.3 0-.5.1-.6-.2s-.1-.6.3-.9c.3-.4 1-1.1 1-1.8 0-.6-1.2-.3-1.3 1.2-.1.1-.3-.1-.3-.4-.3.6-.5 1.3-.4 1.6-.2-.2-.3-.6-.3-.6s-.9.6-1.1 1.6c-.2-.8-.5-.6-.5-.6-.1.1-.1.1-.2.2-.3.5 0 1 .2 1.2.2.1.6.2.9.4.3.3.6.9.1 1.3.2-.3-.1-.7-.3-.7-.5.1-1-.3-1.2-.5s-.8 0-1.2.1-.9.6-.9 1.1c-.2-.2-.5-.6-.2-1.1-.2 0-.7.3-.7.5-.2-.1-.4-.5-.1-.9-.2 0-.7.2-.7.5-.9-1.1 1.4-1.3 2-1.5 0-.2-.2-.4-.3-.5-.3 0-.9-.4-1.1-.6-.8-.5-1.6-.4-1.7.1-.1-.2-.3-.6.2-.9-.3-.1-.6-.1-1 .3 0-.1-.1-.7.5-.9-.2-.2-.9-.1-1.1.1.6-1.4 2.3-.1 2.9.1.5.2.9-.5 1-1.2.2-.5.2-.7.3-1 .1-.2.2-.3.3-.4s.1-.2.2-.3c.1-.3.2-.6.3-.8.4-1.1.8-2.5-.1-3.5-.7-.7-1.6-.7-2.2-.6-.3.1-.9.2-1.5.3-.4.2-.9.3-1 .4-.1-.2.1-.4.2-.5-.3-.3-.7.2-.8.9-.8-.9-.5-1.7.1-2.1-.5-.9.6-1.8 1.5-2.1.8-.3 2.5-.6 2-1.9-.3-.7-.8-1.5-1.3-2.1-1.1-1-2.5-2-3.9-2.8-1.2-.7-2.5-1.1-3.8-1.6-.3-.2-.7-.4-1-.5.6.1 1.2.1.8-.2-.5-.3-1.2-.9-1.6-1.4.7.3 1.3.3.8 0s-1.5-1-1.8-2c.6.5 1.6.9 1.2.5-.3-.3-2.4-2.4-1.5-5.7.1 2 .5 2.1.7 2.3-.4-2.1 0-3.9.3-4.4-.1 1.9.3 2.6.8 3-.3-2.2.3-3.5.7-3.9-.3 2.3-.1 4.8 2.2 6-.1-.5.1-.9.1-.9s.1.6.6 1.1c.6.6 3 2.1 4.7 3.4 1.8 1.3 3.1 2.6 4 4.8 1 2.2 2.2 4.3 3.3 4.9 0 0 2.6-.1 3.9-5.7.5-2.2 2.6-5.5 6.2-6.9 3-1.1 7-3.1 8.1-4.9.1.8-.5 2.1-1.5 2.8 1.8-.5 4.1-2.3 4.9-3.7-.2 1.6-1.8 3.9-3.6 4.7 2.6-.6 5.1-2.7 5.7-3.9.2 1.4-2.1 4-3.6 4.6 1.8-.3 3.3-.9 4.2-2.1-.5 1.4-1.7 2.9-4.7 3.9m-22.7 23.9c0-.3-1 .1-1.2.6.2.2.5.6.4.9.1.2.1.5.1.5.8-.3.7-1.7.7-2" opacity=".3"/></g></svg>