<svg height="40" viewBox="0 0 40 40" width="40" xmlns="http://www.w3.org/2000/svg"><g fill="none"><path d="m4.75 2.03c3.444-2.487 8.316-2.701 11.985-.574 4.136-.717 8.51-.035 12.2 1.977 4.12 2.214 7.354 6.016 8.86 10.447 1.036 2.999 1.277 6.259.738 9.383 1.325 2.33 1.784 5.136 1.247 7.765-.567 2.9-2.355 5.53-4.828 7.145-3.422 2.302-8.125 2.433-11.69.368-3.97.683-8.157.092-11.75-1.743-4.175-2.098-7.505-5.81-9.133-10.193-1.18-3.13-1.476-6.575-.915-9.87a11.28 11.28 0 0 1 -1.215-7.906c.572-2.726 2.221-5.203 4.5-6.8" fill="#00aff0"/><path d="m6.968 4.596c2.087-1.401 4.826-1.751 7.204-.941.845.268 1.606.733 2.37 1.171 2.982-.65 6.146-.556 9.032.477 4.593 1.587 8.342 5.396 9.85 10.016.956 2.817 1.02 5.884.39 8.78.744 1.219 1.385 2.537 1.535 3.974.369 2.707-.734 5.543-2.808 7.315-2.025 1.785-4.95 2.465-7.556 1.753-1.04-.252-1.97-.79-2.887-1.323-3.14.688-6.484.536-9.488-.646-4.434-1.69-8.006-5.462-9.437-9.986-.918-2.781-.964-5.794-.344-8.644-.958-1.495-1.636-3.216-1.602-5.016-.025-2.746 1.442-5.435 3.74-6.93" fill="#fff"/><path d="m17.82 8.54c2.734-.413 5.615.005 8.055 1.323 1.067.59 2.1 1.387 2.595 2.532.323.752.36 1.735-.238 2.366-.646.659-1.7.862-2.567.584-1.004-.42-1.503-1.467-2.355-2.09-1.07-.88-2.511-1.116-3.86-1.092-.987.042-2.043.266-2.763.988-.665.707-.912 1.918-.264 2.713.613.704 1.558.966 2.425 1.207 1.653.412 3.325.744 4.985 1.134 1.727.394 3.471 1.146 4.612 2.548 1.966 2.539 1.523 6.564-.922 8.642-1.956 1.726-4.676 2.203-7.21 2.218-2.705-.04-5.596-.591-7.675-2.434-1.043-.937-1.92-2.351-1.605-3.797.343-1.438 2.325-1.983 3.448-1.099.858.686 1.324 1.73 2.151 2.448.99.904 2.37 1.264 3.69 1.231 1.294.034 2.669-.36 3.556-1.342.603-.663.923-1.671.532-2.52-.322-.797-1.148-1.23-1.937-1.446-1.457-.38-2.924-.725-4.38-1.108-1.601-.39-3.265-.747-4.641-1.697-1.074-.71-1.888-1.82-2.15-3.083-.439-1.983-.124-4.27 1.322-5.785 1.324-1.467 3.287-2.148 5.196-2.441" fill="#00aff0"/></g></svg>
