<svg height="36" viewBox="0 0 35 36" width="35" xmlns="http://www.w3.org/2000/svg"><g fill="#00aaf2"><path d="m34.9558653 27.6359111v7.4117485c0 .8680426-.2648084 1.0461026-1.0813008.9125576-5.4727062-.8235276-11.0116144-1.5802827-16.5284553-2.3592953-.9930314-.133545-1.3461092-.4896651-1.3461092-1.5802827.0882695-3.939578.0441347-7.9014135 0-11.8855066 0-.8680426.2648084-1.1351326 1.1254355-1.1351326 5.6492451.044515 11.2102207.044515 16.749129.044515.9047619 0 1.1254355.3561201 1.1254355 1.1796477-.0882695 2.4928403-.0441347 4.9411656-.0441347 7.4117484z"/><path d="m25.6010114 17c-2.7938278 0-5.5876556-.0449275-8.3814834 0-.8647562 0-1.219528-.1797098-1.219528-1.1905775.0443465-4.0659345.0443465-8.06447781 0-12.08548485 0-.78623043.2660788-1.05579514.9977956-1.1905775 5.7206951-.83115788 11.4413901-1.63985203 17.1620851-2.51593737.9977956-.13478236.8204098.53912944.8204098 1.1007226 0 3.59419624.0443464 7.25578365 0 10.84997992 0 1.3253598-.0443465 2.6507197 0 3.9760796.0443464.8311578-.2660789 1.0557951-1.0421422 1.0557951-2.7494813-.0449275-5.5433091 0-8.3371369 0z"/><path d="m7.02147239 19.0663608h6.05521471c.6441718 0 .9233129.2212029.9233129.9069316v12.2988767c0 .7078491-.3006135.7742099-.9233129.7078491-4.01533741-.6193679-8.03067483-1.2166155-12.02453986-1.7917429-.79447853-.1327217-1.05214724-.398165-1.05214724-1.260856.04294479-3.2738018.04294479-6.5476035 0-9.8877661 0-.8184504.21472393-1.0396532 1.00920245-1.0396532 2.0398773.0663608 3.99386503.0663608 6.01226994.0663608z"/><path d="m6.95718654 17h-5.95107033c-.74923548 0-1.00611621-.269513-1.00611621-1.1005113.04281346-3.2790743.04281346-6.55814869 0-9.85968247 0-.78607947.21406728-1.05559243 1.00611621-1.19034891 4.0030581-.53902592 8.00611621-1.14543009 11.98776759-1.81921249.9204893-.13475648 1.0061162.17967531 1.0061162.96575478v11.94840799c0 .8759171-.3425076 1.0106736-1.0917431 1.0106736-1.9908257 0-4.00305812.0449188-5.95107036.0449188z"/></g></svg>
